<?xml version="1.0" encoding="UTF-8"?>
<svg id="mermaid-1775980711379" width="100%" xmlns="http://www.w3.org/2000/svg" xmlns:xlink="http://www.w3.org/1999/xlink" class="classDiagram" style="max-width: 1588.25px;; background: white" viewBox="0 0 1588.25 516" role="graphics-document document" aria-roledescription="class" xmlns:xhtml="http://www.w3.org/1999/xhtml"><style>#mermaid-1775980711379{font-family:"trebuchet ms",verdana,arial,sans-serif;font-size:16px;fill:#333;}@keyframes edge-animation-frame{from{stroke-dashoffset:0;}}@keyframes dash{to{stroke-dashoffset:0;}}#mermaid-1775980711379 .edge-animation-slow{stroke-dasharray:9,5!important;stroke-dashoffset:900;animation:dash 50s linear infinite;stroke-linecap:round;}#mermaid-1775980711379 .edge-animation-fast{stroke-dasharray:9,5!important;stroke-dashoffset:900;animation:dash 20s linear infinite;stroke-linecap:round;}#mermaid-1775980711379 .error-icon{fill:#552222;}#mermaid-1775980711379 .error-text{fill:#552222;stroke:#552222;}#mermaid-1775980711379 .edge-thickness-normal{stroke-width:1px;}#mermaid-1775980711379 .edge-thickness-thick{stroke-width:3.5px;}#mermaid-1775980711379 .edge-pattern-solid{stroke-dasharray:0;}#mermaid-1775980711379 .edge-thickness-invisible{stroke-width:0;fill:none;}#mermaid-1775980711379 .edge-pattern-dashed{stroke-dasharray:3;}#mermaid-1775980711379 .edge-pattern-dotted{stroke-dasharray:2;}#mermaid-1775980711379 .marker{fill:#333333;stroke:#333333;}#mermaid-1775980711379 .marker.cross{stroke:#333333;}#mermaid-1775980711379 svg{font-family:"trebuchet ms",verdana,arial,sans-serif;font-size:16px;}#mermaid-1775980711379 p{margin:0;}#mermaid-1775980711379 g.classGroup text{fill:#9370DB;stroke:none;font-family:"trebuchet ms",verdana,arial,sans-serif;font-size:10px;}#mermaid-1775980711379 g.classGroup text .title{font-weight:bolder;}#mermaid-1775980711379 .cluster-label text{fill:#333;}#mermaid-1775980711379 .cluster-label span{color:#333;}#mermaid-1775980711379 .cluster-label span p{background-color:transparent;}#mermaid-1775980711379 .cluster rect{fill:#ffffde;stroke:#aaaa33;stroke-width:1px;}#mermaid-1775980711379 .cluster text{fill:#333;}#mermaid-1775980711379 .cluster span{color:#333;}#mermaid-1775980711379 .nodeLabel,#mermaid-1775980711379 .edgeLabel{color:#131300;}#mermaid-1775980711379 .noteLabel .nodeLabel,#mermaid-1775980711379 .noteLabel .edgeLabel{color:black;}#mermaid-1775980711379 .edgeLabel .label rect{fill:#ECECFF;}#mermaid-1775980711379 .label text{fill:#131300;}#mermaid-1775980711379 .labelBkg{background:#ECECFF;}#mermaid-1775980711379 .edgeLabel .label span{background:#ECECFF;}#mermaid-1775980711379 .classTitle{font-weight:bolder;}#mermaid-1775980711379 .node rect,#mermaid-1775980711379 .node circle,#mermaid-1775980711379 .node ellipse,#mermaid-1775980711379 .node polygon,#mermaid-1775980711379 .node path{fill:#ECECFF;stroke:#9370DB;stroke-width:1;}#mermaid-1775980711379 .divider{stroke:#9370DB;stroke-width:1;}#mermaid-1775980711379 g.clickable{cursor:pointer;}#mermaid-1775980711379 g.classGroup rect{fill:#ECECFF;stroke:#9370DB;}#mermaid-1775980711379 g.classGroup line{stroke:#9370DB;stroke-width:1;}#mermaid-1775980711379 .classLabel .box{stroke:none;stroke-width:0;fill:#ECECFF;opacity:0.5;}#mermaid-1775980711379 .classLabel .label{fill:#9370DB;font-size:10px;}#mermaid-1775980711379 .relation{stroke:#333333;stroke-width:1;fill:none;}#mermaid-1775980711379 .dashed-line{stroke-dasharray:3;}#mermaid-1775980711379 .dotted-line{stroke-dasharray:1 2;}#mermaid-1775980711379 [id$="-compositionStart"],#mermaid-1775980711379 .composition{fill:#333333!important;stroke:#333333!important;stroke-width:1;}#mermaid-1775980711379 [id$="-compositionEnd"],#mermaid-1775980711379 .composition{fill:#333333!important;stroke:#333333!important;stroke-width:1;}#mermaid-1775980711379 [id$="-dependencyStart"],#mermaid-1775980711379 .dependency{fill:#333333!important;stroke:#333333!important;stroke-width:1;}#mermaid-1775980711379 [id$="-dependencyEnd"],#mermaid-1775980711379 .dependency{fill:#333333!important;stroke:#333333!important;stroke-width:1;}#mermaid-1775980711379 [id$="-extensionStart"],#mermaid-1775980711379 .extension{fill:transparent!important;stroke:#333333!important;stroke-width:1;}#mermaid-1775980711379 [id$="-extensionEnd"],#mermaid-1775980711379 .extension{fill:transparent!important;stroke:#333333!important;stroke-width:1;}#mermaid-1775980711379 [id$="-aggregationStart"],#mermaid-1775980711379 .aggregation{fill:transparent!important;stroke:#333333!important;stroke-width:1;}#mermaid-1775980711379 [id$="-aggregationEnd"],#mermaid-1775980711379 .aggregation{fill:transparent!important;stroke:#333333!important;stroke-width:1;}#mermaid-1775980711379 [id$="-lollipopStart"],#mermaid-1775980711379 .lollipop{fill:#ECECFF!important;stroke:#333333!important;stroke-width:1;}#mermaid-1775980711379 [id$="-lollipopEnd"],#mermaid-1775980711379 .lollipop{fill:#ECECFF!important;stroke:#333333!important;stroke-width:1;}#mermaid-1775980711379 .edgeTerminals{font-size:11px;line-height:initial;}#mermaid-1775980711379 .classTitleText{text-anchor:middle;font-size:18px;fill:#333;}#mermaid-1775980711379 .edgeLabel[data-look="neo"]{background-color:rgba(232,232,232, 0.8);text-align:center;}#mermaid-1775980711379 .edgeLabel[data-look="neo"] p{background-color:rgba(232,232,232, 0.8);}#mermaid-1775980711379 .edgeLabel[data-look="neo"] rect{opacity:0.5;background-color:rgba(232,232,232, 0.8);fill:rgba(232,232,232, 0.8);}#mermaid-1775980711379 .label-icon{display:inline-block;height:1em;overflow:visible;vertical-align:-0.125em;}#mermaid-1775980711379 .node .label-icon path{fill:currentColor;stroke:revert;stroke-width:revert;}#mermaid-1775980711379 .node .neo-node{stroke:#9370DB;}#mermaid-1775980711379 [data-look="neo"].node rect,#mermaid-1775980711379 [data-look="neo"].cluster rect,#mermaid-1775980711379 [data-look="neo"].node polygon{stroke:#9370DB;filter:drop-shadow(1px 2px 2px rgba(185, 185, 185, 1));}#mermaid-1775980711379 [data-look="neo"].node path{stroke:#9370DB;stroke-width:1px;}#mermaid-1775980711379 [data-look="neo"].node .outer-path{filter:drop-shadow(1px 2px 2px rgba(185, 185, 185, 1));}#mermaid-1775980711379 [data-look="neo"].node .neo-line path{stroke:#9370DB;filter:none;}#mermaid-1775980711379 [data-look="neo"].node circle{stroke:#9370DB;filter:drop-shadow(1px 2px 2px rgba(185, 185, 185, 1));}#mermaid-1775980711379 [data-look="neo"].node circle .state-start{fill:#000000;}#mermaid-1775980711379 [data-look="neo"].icon-shape .icon{fill:#9370DB;filter:drop-shadow(1px 2px 2px rgba(185, 185, 185, 1));}#mermaid-1775980711379 [data-look="neo"].icon-shape .icon-neo path{stroke:#9370DB;filter:drop-shadow(1px 2px 2px rgba(185, 185, 185, 1));}#mermaid-1775980711379 :root{--mermaid-font-family:"trebuchet ms",verdana,arial,sans-serif;}</style><g><defs><style type="text/css">
  body {
    margin: 0;
    padding: 20px;
    background: white;
    display: flex;
    justify-content: center;
    align-items: flex-start;
  }
  #mermaid-container {
    display: inline-block;
    background: white;
  }
  #mermaid-container svg {
    max-width: none !important;
  }
  #error-message {
    color: red;
    font-family: monospace;
    white-space: pre-wrap;
    display: none;
  }

</style><marker id="mermaid-1775980711379_class-aggregationStart" class="marker aggregation class" refX="18" refY="7" markerWidth="190" markerHeight="240" orient="auto"><path d="M 18,7 L9,13 L1,7 L9,1 Z"></path></marker></defs><defs><marker id="mermaid-1775980711379_class-aggregationEnd" class="marker aggregation class" refX="1" refY="7" markerWidth="20" markerHeight="28" orient="auto"><path d="M 18,7 L9,13 L1,7 L9,1 Z"></path></marker></defs><defs><marker id="mermaid-1775980711379_class-aggregationStart-margin" class="marker aggregation class" refX="15" refY="7" markerWidth="190" markerHeight="240" orient="auto" markerUnits="userSpaceOnUse"><path d="M 18,7 L9,13 L1,7 L9,1 Z" style="stroke-width: 2;"></path></marker></defs><defs><marker id="mermaid-1775980711379_class-aggregationEnd-margin" class="marker aggregation class" refX="1" refY="7" markerWidth="20" markerHeight="28" orient="auto" markerUnits="userSpaceOnUse"><path d="M 18,7 L9,13 L1,7 L9,1 Z" style="stroke-width: 2;"></path></marker></defs><defs><marker id="mermaid-1775980711379_class-extensionStart" class="marker extension class" refX="18" refY="7" markerWidth="190" markerHeight="240" orient="auto" markerUnits="userSpaceOnUse"><path d="M 1,7 L18,13 V 1 Z"></path></marker></defs><defs><marker id="mermaid-1775980711379_class-extensionEnd" class="marker extension class" refX="1" refY="7" markerWidth="20" markerHeight="28" orient="auto"><path d="M 1,1 V 13 L18,7 Z"></path></marker></defs><marker id="mermaid-1775980711379_class-extensionStart-margin" class="marker extension class" refX="18" refY="7" markerWidth="20" markerHeight="28" orient="auto" markerUnits="userSpaceOnUse" viewBox="0 0 20 14"><polygon points="10,7 18,13 18,1" style="stroke-width: 2; stroke-dasharray: 0;"></polygon></marker><defs><marker id="mermaid-1775980711379_class-extensionEnd-margin" class="marker extension class" refX="9" refY="7" markerWidth="20" markerHeight="28" orient="auto" markerUnits="userSpaceOnUse" viewBox="0 0 20 14"><polygon points="10,1 10,13 18,7" style="stroke-width: 2; stroke-dasharray: 0;"></polygon></marker></defs><defs><marker id="mermaid-1775980711379_class-compositionStart" class="marker composition class" refX="18" refY="7" markerWidth="190" markerHeight="240" orient="auto"><path d="M 18,7 L9,13 L1,7 L9,1 Z"></path></marker></defs><defs><marker id="mermaid-1775980711379_class-compositionEnd" class="marker composition class" refX="1" refY="7" markerWidth="20" markerHeight="28" orient="auto"><path d="M 18,7 L9,13 L1,7 L9,1 Z"></path></marker></defs><defs><marker id="mermaid-1775980711379_class-compositionStart-margin" class="marker composition class" refX="15" refY="7" markerWidth="190" markerHeight="240" orient="auto" markerUnits="userSpaceOnUse"><path viewBox="0 0 15 15" d="M 18,7 L9,13 L1,7 L9,1 Z" style="stroke-width: 0;"></path></marker></defs><defs><marker id="mermaid-1775980711379_class-compositionEnd-margin" class="marker composition class" refX="3.5" refY="7" markerWidth="20" markerHeight="28" orient="auto" markerUnits="userSpaceOnUse"><path d="M 18,7 L9,13 L1,7 L9,1 Z" style="stroke-width: 0;"></path></marker></defs><defs><marker id="mermaid-1775980711379_class-dependencyStart" class="marker dependency class" refX="6" refY="7" markerWidth="190" markerHeight="240" orient="auto"><path d="M 5,7 L9,13 L1,7 L9,1 Z"></path></marker></defs><defs><marker id="mermaid-1775980711379_class-dependencyEnd" class="marker dependency class" refX="13" refY="7" markerWidth="20" markerHeight="28" orient="auto"><path d="M 18,7 L9,13 L14,7 L9,1 Z"></path></marker></defs><defs><marker id="mermaid-1775980711379_class-dependencyStart-margin" class="marker dependency class" refX="4" refY="7" markerWidth="190" markerHeight="240" orient="auto" markerUnits="userSpaceOnUse"><path d="M 5,7 L9,13 L1,7 L9,1 Z" style="stroke-width: 0;"></path></marker></defs><defs><marker id="mermaid-1775980711379_class-dependencyEnd-margin" class="marker dependency class" refX="16" refY="7" markerWidth="20" markerHeight="28" orient="auto" markerUnits="userSpaceOnUse"><path d="M 18,7 L9,13 L14,7 L9,1 Z" style="stroke-width: 0;"></path></marker></defs><defs><marker id="mermaid-1775980711379_class-lollipopStart" class="marker lollipop class" refX="13" refY="7" markerWidth="190" markerHeight="240" orient="auto"><circle fill="transparent" cx="7" cy="7" r="6"></circle></marker></defs><defs><marker id="mermaid-1775980711379_class-lollipopEnd" class="marker lollipop class" refX="1" refY="7" markerWidth="190" markerHeight="240" orient="auto"><circle fill="transparent" cx="7" cy="7" r="6"></circle></marker></defs><defs><marker id="mermaid-1775980711379_class-lollipopStart-margin" class="marker lollipop class" refX="13" refY="7" markerWidth="190" markerHeight="240" orient="auto" markerUnits="userSpaceOnUse"><circle fill="transparent" cx="7" cy="7" r="6" stroke-width="2"></circle></marker></defs><defs><marker id="mermaid-1775980711379_class-lollipopEnd-margin" class="marker lollipop class" refX="1" refY="7" markerWidth="190" markerHeight="240" orient="auto" markerUnits="userSpaceOnUse"><circle fill="transparent" cx="7" cy="7" r="6" stroke-width="2"></circle></marker></defs><g class="root"><g class="clusters"></g><g class="edgePaths"><path d="M669.68,180.632L591.069,200.027C512.458,219.421,355.237,258.211,276.626,284.772C198.016,311.333,198.016,325.667,198.016,332.833L198.016,340" id="mermaid-1775980711379-id_FastAPI_SkinCancerModel_1" class=" edge-thickness-normal edge-pattern-solid relation" style=";;;" data-edge="true" data-et="edge" data-id="id_FastAPI_SkinCancerModel_1" data-points="W3sieCI6NjY5LjY3OTY4NzUsInkiOjE4MC42MzIyNDQxNjM4NDgxfSx7IngiOjE5OC4wMTU2MjUsInkiOjI5N30seyJ4IjoxOTguMDE1NjI1LCJ5IjozNDZ9XQ==" data-look="classic" marker-end="url(#mermaid-1775980711379_class-dependencyEnd)"></path><path d="M669.68,264.638L662.553,270.032C655.426,275.425,641.172,286.213,634.045,298.773C626.918,311.333,626.918,325.667,626.918,332.833L626.918,340" id="mermaid-1775980711379-id_FastAPI_MalariaModel_2" class=" edge-thickness-normal edge-pattern-solid relation" style=";;;" data-edge="true" data-et="edge" data-id="id_FastAPI_MalariaModel_2" data-points="W3sieCI6NjY5LjY3OTY4NzUsInkiOjI2NC42MzgwMzk0NjY3NDd9LHsieCI6NjI2LjkxNzk2ODc1LCJ5IjoyOTd9LHsieCI6NjI2LjkxNzk2ODc1LCJ5IjozNDZ9XQ==" data-look="classic" marker-end="url(#mermaid-1775980711379_class-dependencyEnd)"></path><path d="M999.063,264.638L1006.189,270.032C1013.316,275.425,1027.57,286.213,1034.697,294.773C1041.824,303.333,1041.824,309.667,1041.824,312.833L1041.824,316" id="mermaid-1775980711379-id_FastAPI_DatasetHandler_3" class=" edge-thickness-normal edge-pattern-solid relation" style=";;;" data-edge="true" data-et="edge" data-id="id_FastAPI_DatasetHandler_3" data-points="W3sieCI6OTk5LjA2MjUsInkiOjI2NC42MzgwMzk0NjY3NDd9LHsieCI6MTA0MS44MjQyMTg3NSwieSI6Mjk3fSx7IngiOjEwNDEuODI0MjE4NzUsInkiOjMyMn1d" data-look="classic" marker-end="url(#mermaid-1775980711379_class-dependencyEnd)"></path><path d="M999.063,183.849L1069.893,202.707C1140.724,221.566,1282.385,259.283,1353.216,281.808C1424.047,304.333,1424.047,311.667,1424.047,315.333L1424.047,319" id="mermaid-1775980711379-id_FastAPI_ModelConfig_4" class=" edge-thickness-normal edge-pattern-solid relation" style=";;;" data-edge="true" data-et="edge" data-id="id_FastAPI_ModelConfig_4" data-points="W3sieCI6OTk5LjA2MjUsInkiOjE4My44NDg3NTgyNTU2NjIyfSx7IngiOjE0MjQuMDQ2ODc1LCJ5IjoyOTd9LHsieCI6MTQyNC4wNDY4NzUsInkiOjMyNX1d" data-look="classic" marker-end="url(#mermaid-1775980711379_class-dependencyEnd)"></path></g><g class="edgeLabels"><g class="edgeLabel"><g class="label" data-id="id_FastAPI_SkinCancerModel_1" transform="translate(0, 0)"><text y="-10.1" text-anchor="middle"><tspan class="text-outer-tspan row" x="0" y="-0.1em" dy="1.1em" text-anchor="middle"></tspan></text></g></g><g><rect class="background" style="stroke: none"></rect></g><g class="edgeLabel"><g class="label" data-id="id_FastAPI_MalariaModel_2" transform="translate(0, 0)"><text y="-10.1" text-anchor="middle"><tspan class="text-outer-tspan row" x="0" y="-0.1em" dy="1.1em" text-anchor="middle"></tspan></text></g></g><g><rect class="background" style="stroke: none"></rect></g><g class="edgeLabel"><g class="label" data-id="id_FastAPI_DatasetHandler_3" transform="translate(0, 0)"><text y="-10.1" text-anchor="middle"><tspan class="text-outer-tspan row" x="0" y="-0.1em" dy="1.1em" text-anchor="middle"></tspan></text></g></g><g><rect class="background" style="stroke: none"></rect></g><g class="edgeLabel"><g class="label" data-id="id_FastAPI_ModelConfig_4" transform="translate(0, 0)"><text y="-10.1" text-anchor="middle"><tspan class="text-outer-tspan row" x="0" y="-0.1em" dy="1.1em" text-anchor="middle"></tspan></text></g></g><g><rect class="background" style="stroke: none"></rect></g></g><g class="nodes"><g class="node default " id="mermaid-1775980711379-classId-FastAPI-0" data-look="classic" transform="translate(834.37109375, 140)"><g class="basic label-container outer-path"><path d="M-164.69140625 -132 L164.69140625 -132 L164.69140625 132 L-164.69140625 132" stroke="none" stroke-width="0" fill="#ECECFF" style=""></path><path d="M-164.69140625 -132 C-93.37516623441785 -132, -22.058926218835694 -132, 164.69140625 -132 M-164.69140625 -132 C-88.00516505728216 -132, -11.318923864564312 -132, 164.69140625 -132 M164.69140625 -132 C164.69140625 -38.259432984501444, 164.69140625 55.48113403099711, 164.69140625 132 M164.69140625 -132 C164.69140625 -33.14408212100841, 164.69140625 65.71183575798318, 164.69140625 132 M164.69140625 132 C66.55023684516448 132, -31.590932559671046 132, -164.69140625 132 M164.69140625 132 C34.50598711462331 132, -95.67943202075338 132, -164.69140625 132 M-164.69140625 132 C-164.69140625 26.84637487127239, -164.69140625 -78.30725025745522, -164.69140625 -132 M-164.69140625 132 C-164.69140625 73.89706906629104, -164.69140625 15.794138132582063, -164.69140625 -132" stroke="#9370DB" stroke-width="1.3" fill="none" stroke-dasharray="0 0" style=""></path></g><g class="annotation-group text" transform="translate(0, -108)"></g><g class="label-group text" transform="translate(-35.3828125, -108)"><g class="label" style="font-weight: bolder" transform="translate(0,-12)"><foreignObject width="70.765625" height="24"><div xmlns="http://www.w3.org/1999/xhtml" style="display: table-cell; white-space: nowrap; line-height: 1.5; max-width: 102px; text-align: center;"><span class="nodeLabel markdown-node-label" style=""><p>FastAPI</p></span></div></foreignObject></g></g><g class="members-group text" transform="translate(-152.69140625, -60)"><g class="label" style="" transform="translate(0,-12)"><foreignObject width="115.515625" height="24"><div xmlns="http://www.w3.org/1999/xhtml" style="display: table-cell; white-space: nowrap; line-height: 1.5; max-width: 147px; text-align: center;"><span class="nodeLabel markdown-node-label" style=""><p>+app: FastAPI</p></span></div></foreignObject></g></g><g class="methods-group text" transform="translate(-152.69140625, -12)"><g class="label" style="" transform="translate(0,-12)"><foreignObject width="159.9375" height="24"><div xmlns="http://www.w3.org/1999/xhtml" style="display: table-cell; white-space: nowrap; line-height: 1.5; max-width: 176px; text-align: center;"><span class="nodeLabel markdown-node-label" style=""><p>+on_event(startup)</p></span></div></foreignObject></g><g class="label" style="" transform="translate(0,12)"><foreignObject width="120.59375" height="24"><div xmlns="http://www.w3.org/1999/xhtml" style="display: table-cell; white-space: nowrap; line-height: 1.5; max-width: 145px; text-align: center;"><span class="nodeLabel markdown-node-label" style=""><p>+root() : : dict</p></span></div></foreignObject></g><g class="label" style="" transform="translate(0,36)"><foreignObject width="194.09375" height="24"><div xmlns="http://www.w3.org/1999/xhtml" style="display: table-cell; white-space: nowrap; line-height: 1.5; max-width: 204px; text-align: center;"><span class="nodeLabel markdown-node-label" style=""><p>+health_check() : : dict</p></span></div></foreignObject></g><g class="label" style="" transform="translate(0,48)"><foreignObject width="270" height="48"><div xmlns="http://www.w3.org/1999/xhtml" style="display: table; white-space: break-spaces; line-height: 1.5; max-width: 270px; text-align: center; width: 270px;"><span class="nodeLabel markdown-node-label" style=""><p>+predict_skin_cancer(file) : : dict</p></span></div></foreignObject></g><g class="label" style="" transform="translate(0,108)"><foreignObject width="237.46875" height="24"><div xmlns="http://www.w3.org/1999/xhtml" style="display: table-cell; white-space: nowrap; line-height: 1.5; max-width: 241px; text-align: center;"><span class="nodeLabel markdown-node-label" style=""><p>+predict_malaria(file) : : dict</p></span></div></foreignObject></g></g><g class="divider" style=""><path d="M-164.69140625 -84 C-49.15202325323828 -83.9996492246146, 66.38735974352343 -83.99929844922922, 164.69140625 -83.999 M-164.69140625 -84 C-72.16991961303913 -83.99971910651338, 20.351567023921746 -83.99943821302675, 164.69140625 -83.999" stroke="#9370DB" stroke-width="1.3" fill="none" stroke-dasharray="0 0" style=""></path></g><g class="divider" style=""><path d="M-164.69140625 -36 C-33.44910791070171 -35.9996015508601, 97.79319042859657 -35.9992031017202, 164.69140625 -35.999 M-164.69140625 -36 C-44.89711523457575 -35.999636306794194, 74.8971757808485 -35.99927261358839, 164.69140625 -35.999" stroke="#9370DB" stroke-width="1.3" fill="none" stroke-dasharray="0 0" style=""></path></g></g><g class="node default " id="mermaid-1775980711379-classId-SkinCancerModel-1" data-look="classic" transform="translate(198.015625, 415)"><g class="basic label-container outer-path"><path d="M-190.015625 -69 L190.015625 -69 L190.015625 69 L-190.015625 69" stroke="none" stroke-width="0" fill="#ECECFF" style=""></path><path d="M-190.015625 -69 C-60.7736231117384 -69, 68.4683787765232 -69, 190.015625 -69 M-190.015625 -69 C-113.77100029290649 -69, -37.526375585812985 -69, 190.015625 -69 M190.015625 -69 C190.015625 -24.409887525507983, 190.015625 20.180224948984034, 190.015625 69 M190.015625 -69 C190.015625 -24.013548798119302, 190.015625 20.972902403761395, 190.015625 69 M190.015625 69 C84.04856709166097 69, -21.91849081667806 69, -190.015625 69 M190.015625 69 C83.18422407045033 69, -23.647176859099346 69, -190.015625 69 M-190.015625 69 C-190.015625 21.520906938722305, -190.015625 -25.95818612255539, -190.015625 -69 M-190.015625 69 C-190.015625 29.314046648267436, -190.015625 -10.371906703465129, -190.015625 -69" stroke="#9370DB" stroke-width="1.3" fill="none" stroke-dasharray="0 0" style=""></path></g><g class="annotation-group text" transform="translate(0, -45)"></g><g class="label-group text" transform="translate(-77.03125, -45)"><g class="label" style="font-weight: bolder" transform="translate(0,-12)"><foreignObject width="154.0625" height="24"><div xmlns="http://www.w3.org/1999/xhtml" style="display: table-cell; white-space: nowrap; line-height: 1.5; max-width: 167px; text-align: center;"><span class="nodeLabel markdown-node-label" style=""><p>SkinCancerModel</p></span></div></foreignObject></g></g><g class="members-group text" transform="translate(-178.015625, 3)"></g><g class="methods-group text" transform="translate(-178.015625, 33)"><g class="label" style="" transform="translate(0,-24)"><foreignObject width="279" height="48"><div xmlns="http://www.w3.org/1999/xhtml" style="display: table; white-space: break-spaces; line-height: 1.5; max-width: 279px; text-align: center; width: 279px;"><span class="nodeLabel markdown-node-label" style=""><p>+create_model() : : EfficientNetB0</p></span></div></foreignObject></g></g><g class="divider" style=""><path d="M-190.015625 -21 C-63.19669809510826 -20.999666293424802, 63.62222880978348 -20.999332586849608, 190.015625 -20.999 M-190.015625 -21 C-61.7405717883444 -20.999662461828567, 66.5344814233112 -20.999324923657138, 190.015625 -20.999" stroke="#9370DB" stroke-width="1.3" fill="none" stroke-dasharray="0 0" style=""></path></g><g class="divider" style=""><path d="M-190.015625 3 C-65.79214844721278 3.0003268770043325, 58.43132810557444 3.000653754008665, 190.015625 3.001 M-190.015625 3 C-96.82970065955409 3.0002452059517224, -3.6437763191081842 3.0004904119034443, 190.015625 3.001" stroke="#9370DB" stroke-width="1.3" fill="none" stroke-dasharray="0 0" style=""></path></g></g><g class="node default " id="mermaid-1775980711379-classId-MalariaModel-2" data-look="classic" transform="translate(626.91796875, 415)"><g class="basic label-container outer-path"><path d="M-188.88671875 -69 L188.88671875 -69 L188.88671875 69 L-188.88671875 69" stroke="none" stroke-width="0" fill="#ECECFF" style=""></path><path d="M-188.88671875 -69 C-53.47104155140198 -69, 81.94463564719604 -69, 188.88671875 -69 M-188.88671875 -69 C-97.18445444189622 -69, -5.482190133792443 -69, 188.88671875 -69 M188.88671875 -69 C188.88671875 -23.712758057072946, 188.88671875 21.574483885854107, 188.88671875 69 M188.88671875 -69 C188.88671875 -30.45412886507892, 188.88671875 8.091742269842157, 188.88671875 69 M188.88671875 69 C60.553092507813034 69, -67.78053373437393 69, -188.88671875 69 M188.88671875 69 C66.38835341124123 69, -56.11001192751755 69, -188.88671875 69 M-188.88671875 69 C-188.88671875 40.836358214857334, -188.88671875 12.672716429714669, -188.88671875 -69 M-188.88671875 69 C-188.88671875 22.382542753300214, -188.88671875 -24.23491449339957, -188.88671875 -69" stroke="#9370DB" stroke-width="1.3" fill="none" stroke-dasharray="0 0" style=""></path></g><g class="annotation-group text" transform="translate(0, -45)"></g><g class="label-group text" transform="translate(-59.7734375, -45)"><g class="label" style="font-weight: bolder" transform="translate(0,-12)"><foreignObject width="119.546875" height="24"><div xmlns="http://www.w3.org/1999/xhtml" style="display: table-cell; white-space: nowrap; line-height: 1.5; max-width: 142px; text-align: center;"><span class="nodeLabel markdown-node-label" style=""><p>MalariaModel</p></span></div></foreignObject></g></g><g class="members-group text" transform="translate(-176.88671875, 3)"></g><g class="methods-group text" transform="translate(-176.88671875, 33)"><g class="label" style="" transform="translate(0,-24)"><foreignObject width="294" height="48"><div xmlns="http://www.w3.org/1999/xhtml" style="display: table; white-space: break-spaces; line-height: 1.5; max-width: 294px; text-align: center; width: 294px;"><span class="nodeLabel markdown-node-label" style=""><p>+create_model() : : EfficientNetLite0</p></span></div></foreignObject></g></g><g class="divider" style=""><path d="M-188.88671875 -21 C-90.29955476286602 -20.999739030979416, 8.287609224267953 -20.99947806195883, 188.88671875 -20.999 M-188.88671875 -21 C-80.19466061294347 -20.99971228242288, 28.49739752411307 -20.999424564845764, 188.88671875 -20.999" stroke="#9370DB" stroke-width="1.3" fill="none" stroke-dasharray="0 0" style=""></path></g><g class="divider" style=""><path d="M-188.88671875 3 C-58.63060073131123 3.000344799567912, 71.62551728737753 3.0006895991358244, 188.88671875 3.001 M-188.88671875 3 C-61.80840629899316 3.0003363876330003, 65.26990615201368 3.0006727752660005, 188.88671875 3.001" stroke="#9370DB" stroke-width="1.3" fill="none" stroke-dasharray="0 0" style=""></path></g></g><g class="node default " id="mermaid-1775980711379-classId-DatasetHandler-3" data-look="classic" transform="translate(1041.82421875, 415)"><g class="basic label-container outer-path"><path d="M-176.01953125 -93 L176.01953125 -93 L176.01953125 93 L-176.01953125 93" stroke="none" stroke-width="0" fill="#ECECFF" style=""></path><path d="M-176.01953125 -93 C-50.23815306727708 -93, 75.54322511544584 -93, 176.01953125 -93 M-176.01953125 -93 C-73.32822322876409 -93, 29.363084792471824 -93, 176.01953125 -93 M176.01953125 -93 C176.01953125 -30.80107885678479, 176.01953125 31.397842286430418, 176.01953125 93 M176.01953125 -93 C176.01953125 -42.72480850718089, 176.01953125 7.5503829856382225, 176.01953125 93 M176.01953125 93 C52.551103628883254 93, -70.91732399223349 93, -176.01953125 93 M176.01953125 93 C44.61936637678048 93, -86.78079849643905 93, -176.01953125 93 M-176.01953125 93 C-176.01953125 35.11762334468934, -176.01953125 -22.764753310621316, -176.01953125 -93 M-176.01953125 93 C-176.01953125 26.733142498700815, -176.01953125 -39.53371500259837, -176.01953125 -93" stroke="#9370DB" stroke-width="1.3" fill="none" stroke-dasharray="0 0" style=""></path></g><g class="annotation-group text" transform="translate(0, -69)"></g><g class="label-group text" transform="translate(-70.0390625, -69)"><g class="label" style="font-weight: bolder" transform="translate(0,-12)"><foreignObject width="140.078125" height="24"><div xmlns="http://www.w3.org/1999/xhtml" style="display: table-cell; white-space: nowrap; line-height: 1.5; max-width: 150px; text-align: center;"><span class="nodeLabel markdown-node-label" style=""><p>DatasetHandler</p></span></div></foreignObject></g></g><g class="members-group text" transform="translate(-164.01953125, -21)"></g><g class="methods-group text" transform="translate(-164.01953125, 9)"><g class="label" style="" transform="translate(0,-24)"><foreignObject width="254" height="48"><div xmlns="http://www.w3.org/1999/xhtml" style="display: table; white-space: break-spaces; line-height: 1.5; max-width: 254px; text-align: center; width: 254px;"><span class="nodeLabel markdown-node-label" style=""><p>+preprocess_image() : : Tensor</p></span></div></foreignObject></g><g class="label" style="" transform="translate(0,24)"><foreignObject width="258" height="48"><div xmlns="http://www.w3.org/1999/xhtml" style="display: table; white-space: break-spaces; line-height: 1.5; max-width: 258px; text-align: center; width: 258px;"><span class="nodeLabel markdown-node-label" style=""><p>+get_transform() : : Transforms</p></span></div></foreignObject></g></g><g class="divider" style=""><path d="M-176.01953125 -45 C-66.95548215039774 -44.9996901933316, 42.108566949204516 -44.999380386663205, 176.01953125 -44.999 M-176.01953125 -45 C-44.227165355224884 -44.999625631414425, 87.56520053955023 -44.99925126282886, 176.01953125 -44.999" stroke="#9370DB" stroke-width="1.3" fill="none" stroke-dasharray="0 0" style=""></path></g><g class="divider" style=""><path d="M-176.01953125 -21 C-93.41294711676656 -20.99976534824418, -10.80636298353312 -20.999530696488357, 176.01953125 -20.999 M-176.01953125 -21 C-93.31007500541456 -20.99976505602629, -10.600618760829121 -20.999530112052582, 176.01953125 -20.999" stroke="#9370DB" stroke-width="1.3" fill="none" stroke-dasharray="0 0" style=""></path></g></g><g class="node default " id="mermaid-1775980711379-classId-ModelConfig-4" data-look="classic" transform="translate(1424.046875, 415)"><g class="basic label-container outer-path"><path d="M-156.203125 -90 L156.203125 -90 L156.203125 90 L-156.203125 90" stroke="none" stroke-width="0" fill="#ECECFF" style=""></path><path d="M-156.203125 -90 C-68.48371592496105 -90, 19.235693150077907 -90, 156.203125 -90 M-156.203125 -90 C-38.86789636830419 -90, 78.46733226339163 -90, 156.203125 -90 M156.203125 -90 C156.203125 -23.22837583943719, 156.203125 43.54324832112562, 156.203125 90 M156.203125 -90 C156.203125 -21.00891130153677, 156.203125 47.98217739692646, 156.203125 90 M156.203125 90 C40.361782050242624 90, -75.47956089951475 90, -156.203125 90 M156.203125 90 C68.3418530014743 90, -19.51941899705139 90, -156.203125 90 M-156.203125 90 C-156.203125 26.500405419125613, -156.203125 -36.999189161748774, -156.203125 -90 M-156.203125 90 C-156.203125 41.49719280097296, -156.203125 -7.005614398054078, -156.203125 -90" stroke="#9370DB" stroke-width="1.3" fill="none" stroke-dasharray="0 0" style=""></path></g><g class="annotation-group text" transform="translate(0, -66)"></g><g class="label-group text" transform="translate(-55.40625, -66)"><g class="label" style="font-weight: bolder" transform="translate(0,-12)"><foreignObject width="110.8125" height="24"><div xmlns="http://www.w3.org/1999/xhtml" style="display: table-cell; white-space: nowrap; line-height: 1.5; max-width: 136px; text-align: center;"><span class="nodeLabel markdown-node-label" style=""><p>ModelConfig</p></span></div></foreignObject></g></g><g class="members-group text" transform="translate(-144.203125, -18)"><g class="label" style="" transform="translate(0,-12)"><foreignObject width="130.09375" height="24"><div xmlns="http://www.w3.org/1999/xhtml" style="display: table-cell; white-space: nowrap; line-height: 1.5; max-width: 155px; text-align: center;"><span class="nodeLabel markdown-node-label" style=""><p>+base_dir: Path</p></span></div></foreignObject></g><g class="label" style="" transform="translate(0,12)"><foreignObject width="150.140625" height="24"><div xmlns="http://www.w3.org/1999/xhtml" style="display: table-cell; white-space: nowrap; line-height: 1.5; max-width: 172px; text-align: center;"><span class="nodeLabel markdown-node-label" style=""><p>+models_dir: Path</p></span></div></foreignObject></g></g><g class="methods-group text" transform="translate(-144.203125, 54)"><g class="label" style="" transform="translate(0,-24)"><foreignObject width="233" height="48"><div xmlns="http://www.w3.org/1999/xhtml" style="display: table; white-space: break-spaces; line-height: 1.5; max-width: 233px; text-align: center; width: 233px;"><span class="nodeLabel markdown-node-label" style=""><p>+get_latest_model() : : Path</p></span></div></foreignObject></g></g><g class="divider" style=""><path d="M-156.203125 -42 C-49.75532174673681 -41.99965926480903, 56.69248150652638 -41.999318529618066, 156.203125 -41.999 M-156.203125 -42 C-39.45447828259044 -41.99962629221817, 77.29416843481911 -41.99925258443634, 156.203125 -41.999" stroke="#9370DB" stroke-width="1.3" fill="none" stroke-dasharray="0 0" style=""></path></g><g class="divider" style=""><path d="M-156.203125 30 C-59.34070308144291 30.00031005276597, 37.52171883711418 30.00062010553194, 156.203125 30.001 M-156.203125 30 C-31.526768831591895 30.00039908406496, 93.14958733681621 30.00079816812992, 156.203125 30.001" stroke="#9370DB" stroke-width="1.3" fill="none" stroke-dasharray="0 0" style=""></path></g></g></g></g></g><defs><filter id="mermaid-1775980711379-drop-shadow" height="130%" width="130%"><feDropShadow dx="4" dy="4" stdDeviation="0" flood-opacity="0.06" flood-color="#000000"></feDropShadow></filter></defs><defs><filter id="mermaid-1775980711379-drop-shadow-small" height="150%" width="150%"><feDropShadow dx="2" dy="2" stdDeviation="0" flood-opacity="0.06" flood-color="#000000"></feDropShadow></filter></defs></svg>